%TF.GenerationSoftware,KiCad,Pcbnew,8.0.3*%
%TF.CreationDate,2024-12-27T16:28:44-08:00*%
%TF.ProjectId,enph259-servo,656e7068-3235-4392-9d73-6572766f2e6b,1*%
%TF.SameCoordinates,Original*%
%TF.FileFunction,Drillmap*%
%TF.FilePolarity,Positive*%
%FSLAX45Y45*%
G04 Gerber Fmt 4.5, Leading zero omitted, Abs format (unit mm)*
G04 Created by KiCad (PCBNEW 8.0.3) date 2024-12-27 16:28:44*
%MOMM*%
%LPD*%
G01*
G04 APERTURE LIST*
%ADD10C,0.050000*%
%ADD11C,0.200000*%
G04 APERTURE END LIST*
D10*
X5320000Y-8590000D02*
X5320000Y-3340000D01*
X14650000Y-3140000D02*
G75*
G02*
X14850000Y-3340000I0J-200000D01*
G01*
X5520000Y-8790000D02*
G75*
G02*
X5320000Y-8590000I0J200000D01*
G01*
X14650000Y-8790000D02*
X5520000Y-8790000D01*
X5520000Y-3140000D02*
X14650000Y-3140000D01*
X14850000Y-3340000D02*
X14850000Y-8590000D01*
X14130000Y-3598579D02*
G75*
G02*
X13450000Y-3598579I-340000J0D01*
G01*
X13450000Y-3598579D02*
G75*
G02*
X14130000Y-3598579I340000J0D01*
G01*
X14850000Y-8590000D02*
G75*
G02*
X14650000Y-8790000I-200000J0D01*
G01*
X5320000Y-3340000D02*
G75*
G02*
X5520000Y-3140000I200000J0D01*
G01*
X6168579Y-8281421D02*
G75*
G02*
X5488579Y-8281421I-340000J0D01*
G01*
X5488579Y-8281421D02*
G75*
G02*
X6168579Y-8281421I340000J0D01*
G01*
D11*
X5578277Y-9103984D02*
X5578277Y-8903984D01*
X5578277Y-8903984D02*
X5625896Y-8903984D01*
X5625896Y-8903984D02*
X5654467Y-8913508D01*
X5654467Y-8913508D02*
X5673515Y-8932555D01*
X5673515Y-8932555D02*
X5683039Y-8951603D01*
X5683039Y-8951603D02*
X5692562Y-8989698D01*
X5692562Y-8989698D02*
X5692562Y-9018270D01*
X5692562Y-9018270D02*
X5683039Y-9056365D01*
X5683039Y-9056365D02*
X5673515Y-9075412D01*
X5673515Y-9075412D02*
X5654467Y-9094460D01*
X5654467Y-9094460D02*
X5625896Y-9103984D01*
X5625896Y-9103984D02*
X5578277Y-9103984D01*
X5778277Y-9103984D02*
X5778277Y-8970650D01*
X5778277Y-9008746D02*
X5787801Y-8989698D01*
X5787801Y-8989698D02*
X5797324Y-8980174D01*
X5797324Y-8980174D02*
X5816372Y-8970650D01*
X5816372Y-8970650D02*
X5835420Y-8970650D01*
X5902086Y-9103984D02*
X5902086Y-8970650D01*
X5902086Y-8903984D02*
X5892562Y-8913508D01*
X5892562Y-8913508D02*
X5902086Y-8923031D01*
X5902086Y-8923031D02*
X5911610Y-8913508D01*
X5911610Y-8913508D02*
X5902086Y-8903984D01*
X5902086Y-8903984D02*
X5902086Y-8923031D01*
X6025896Y-9103984D02*
X6006848Y-9094460D01*
X6006848Y-9094460D02*
X5997324Y-9075412D01*
X5997324Y-9075412D02*
X5997324Y-8903984D01*
X6130658Y-9103984D02*
X6111610Y-9094460D01*
X6111610Y-9094460D02*
X6102086Y-9075412D01*
X6102086Y-9075412D02*
X6102086Y-8903984D01*
X6359229Y-9103984D02*
X6359229Y-8903984D01*
X6359229Y-8903984D02*
X6425896Y-9046841D01*
X6425896Y-9046841D02*
X6492562Y-8903984D01*
X6492562Y-8903984D02*
X6492562Y-9103984D01*
X6673515Y-9103984D02*
X6673515Y-8999222D01*
X6673515Y-8999222D02*
X6663991Y-8980174D01*
X6663991Y-8980174D02*
X6644943Y-8970650D01*
X6644943Y-8970650D02*
X6606848Y-8970650D01*
X6606848Y-8970650D02*
X6587801Y-8980174D01*
X6673515Y-9094460D02*
X6654467Y-9103984D01*
X6654467Y-9103984D02*
X6606848Y-9103984D01*
X6606848Y-9103984D02*
X6587801Y-9094460D01*
X6587801Y-9094460D02*
X6578277Y-9075412D01*
X6578277Y-9075412D02*
X6578277Y-9056365D01*
X6578277Y-9056365D02*
X6587801Y-9037317D01*
X6587801Y-9037317D02*
X6606848Y-9027793D01*
X6606848Y-9027793D02*
X6654467Y-9027793D01*
X6654467Y-9027793D02*
X6673515Y-9018270D01*
X6768753Y-8970650D02*
X6768753Y-9170650D01*
X6768753Y-8980174D02*
X6787801Y-8970650D01*
X6787801Y-8970650D02*
X6825896Y-8970650D01*
X6825896Y-8970650D02*
X6844943Y-8980174D01*
X6844943Y-8980174D02*
X6854467Y-8989698D01*
X6854467Y-8989698D02*
X6863991Y-9008746D01*
X6863991Y-9008746D02*
X6863991Y-9065889D01*
X6863991Y-9065889D02*
X6854467Y-9084936D01*
X6854467Y-9084936D02*
X6844943Y-9094460D01*
X6844943Y-9094460D02*
X6825896Y-9103984D01*
X6825896Y-9103984D02*
X6787801Y-9103984D01*
X6787801Y-9103984D02*
X6768753Y-9094460D01*
X6949705Y-9084936D02*
X6959229Y-9094460D01*
X6959229Y-9094460D02*
X6949705Y-9103984D01*
X6949705Y-9103984D02*
X6940182Y-9094460D01*
X6940182Y-9094460D02*
X6949705Y-9084936D01*
X6949705Y-9084936D02*
X6949705Y-9103984D01*
X6949705Y-8980174D02*
X6959229Y-8989698D01*
X6959229Y-8989698D02*
X6949705Y-8999222D01*
X6949705Y-8999222D02*
X6940182Y-8989698D01*
X6940182Y-8989698D02*
X6949705Y-8980174D01*
X6949705Y-8980174D02*
X6949705Y-8999222D01*
M02*
