M48
; DRILL file {KiCad 8.0.3} date 2024-12-27T16:28:42-0800
; FORMAT={-:-/ absolute / inch / decimal}
; #@! TF.CreationDate,2024-12-27T16:28:42-08:00
; #@! TF.GenerationSoftware,Kicad,Pcbnew,8.0.3
; #@! TF.FileFunction,Plated,1,4,PTH
FMAT,2
INCH
; #@! TA.AperFunction,Plated,PTH,ViaDrill
T1C0.0118
; #@! TA.AperFunction,Plated,PTH,ComponentDrill
T2C0.0315
; #@! TA.AperFunction,Plated,PTH,ComponentDrill
T3C0.0354
; #@! TA.AperFunction,Plated,PTH,ComponentDrill
T4C0.0394
; #@! TA.AperFunction,Plated,PTH,ComponentDrill
T5C0.0433
; #@! TA.AperFunction,Plated,PTH,ComponentDrill
T6C0.0472
%
G90
G05
T1
X3.9764Y-3.063
T2
X2.1929Y-1.4748
X2.1929Y-1.5748
X2.1929Y-1.6748
X2.1929Y-1.7748
X2.1929Y-1.8748
X2.1929Y-1.9748
X2.1929Y-2.0748
X2.3071Y-1.3346
X2.4646Y-2.2126
X2.4646Y-2.4094
X2.4929Y-1.4748
X2.4929Y-1.5748
X2.4929Y-1.6748
X2.4929Y-1.7748
X2.4929Y-1.8748
X2.4929Y-1.9748
X2.4929Y-2.0748
X2.5039Y-1.3346
X2.5276Y-2.6161
X2.5276Y-3.1161
X2.5906Y-2.2043
X2.5906Y-2.5043
X2.6102Y-1.3583
X2.6181Y-1.4764
X2.6417Y-1.5969
X2.6417Y-2.0969
X2.6969Y-2.6161
X2.6969Y-3.1161
X2.7087Y-1.3583
X2.8071Y-1.5969
X2.8071Y-2.0969
X2.815Y-1.4764
X2.8898Y-2.9685
X2.9606Y-1.4748
X2.9606Y-1.5748
X2.9606Y-1.6748
X2.9606Y-1.7748
X2.9606Y-1.8748
X2.9606Y-1.9748
X2.9606Y-2.0748
X2.9882Y-2.9685
X3.0748Y-1.3346
X3.1228Y-3.2992
X3.2228Y-3.2992
X3.2606Y-1.4748
X3.2606Y-1.5748
X3.2606Y-1.6748
X3.2606Y-1.7748
X3.2606Y-1.8748
X3.2606Y-1.9748
X3.2606Y-2.0748
X3.2717Y-1.3346
X3.3228Y-3.2992
X3.4016Y-1.4748
X3.4016Y-1.5748
X3.4016Y-1.6748
X3.4016Y-1.7748
X3.4016Y-1.8748
X3.4016Y-1.9748
X3.4016Y-2.0748
X3.4016Y-2.1748
X3.4016Y-2.2748
X3.4016Y-2.3748
X3.5157Y-1.3346
X3.563Y-3.2953
X3.6457Y-2.8445
X3.6614Y-3.2953
X3.7016Y-1.4748
X3.7016Y-1.5748
X3.7016Y-1.6748
X3.7016Y-1.7748
X3.7016Y-1.8748
X3.7016Y-1.9748
X3.7016Y-2.0748
X3.7016Y-2.1748
X3.7016Y-2.2748
X3.7016Y-2.3748
X3.7126Y-1.3346
X3.8465Y-1.4783
X3.8465Y-1.5783
X3.8465Y-1.6783
X3.8465Y-1.7783
X3.8465Y-1.8783
X3.8465Y-1.9783
X3.8465Y-2.0783
X3.8465Y-2.1783
X3.8465Y-2.2783
X3.8465Y-2.3783
X4.0681Y-1.6953
X4.0681Y-1.7953
X4.0681Y-1.8953
X4.0681Y-1.9953
X4.0681Y-2.0953
X4.0681Y-2.1953
X4.0681Y-2.2953
X4.0681Y-2.3953
X4.0681Y-2.4953
X4.0681Y-2.5953
X4.1457Y-2.8445
X4.1831Y-1.5551
X4.2795Y-2.8209
X4.2795Y-3.3209
X4.3681Y-1.6953
X4.3681Y-1.7953
X4.3681Y-1.8953
X4.3681Y-1.9953
X4.3681Y-2.0953
X4.3681Y-2.1953
X4.3681Y-2.2953
X4.3681Y-2.3953
X4.3681Y-2.4953
X4.3681Y-2.5953
X4.3799Y-1.5551
X4.4244Y-3.3622
X4.4362Y-2.9213
X4.4362Y-3.0213
X4.4362Y-3.1213
X4.4362Y-3.2213
X4.4902Y-1.4547
X4.4902Y-1.6181
X4.4902Y-1.7795
X4.4902Y-1.9409
X4.4902Y-2.1024
X4.4902Y-2.2638
X4.4902Y-2.4252
X4.4902Y-2.5866
X4.5504Y-2.7795
X4.6213Y-3.3622
X4.7362Y-2.9213
X4.7362Y-3.0213
X4.7362Y-3.1213
X4.7362Y-3.2213
X4.7472Y-2.7795
X4.9902Y-1.4547
X4.9902Y-1.6181
X4.9902Y-1.7795
X4.9902Y-1.9409
X4.9902Y-2.1024
X4.9902Y-2.2638
X4.9902Y-2.4252
X4.9902Y-2.5866
X5.126Y-2.8209
X5.126Y-3.3209
X5.2913Y-2.8209
X5.2913Y-3.3209
X5.4331Y-3.3622
X5.4449Y-2.9213
X5.4449Y-3.0213
X5.4449Y-3.1213
X5.4449Y-3.2213
X5.5591Y-2.7795
X5.6299Y-3.3622
X5.7449Y-2.9213
X5.7449Y-3.0213
X5.7449Y-3.1213
X5.7449Y-3.2213
X5.7559Y-2.7795
T3
X5.2028Y-1.7047
X5.2028Y-1.9803
X5.2028Y-2.2559
X5.2028Y-2.5315
X5.3028Y-1.7047
X5.3028Y-1.9803
X5.3028Y-2.2559
X5.3028Y-2.5315
X5.5492Y-1.7047
X5.5492Y-1.9803
X5.5492Y-2.2559
X5.5492Y-2.5315
X5.6492Y-1.7047
X5.6492Y-1.9803
X5.6492Y-2.2559
X5.6492Y-2.5315
T4
X2.2283Y-2.315
X2.2283Y-2.415
X2.248Y-2.6378
X2.248Y-2.7378
X2.248Y-2.8378
X2.248Y-2.9378
X2.5858Y-3.3071
X2.6858Y-3.3071
X2.7858Y-3.3071
X2.8858Y-3.3071
X4.9252Y-2.923
X4.9252Y-3.2183
T5
X3.8764Y-3.3661
X3.9764Y-3.3661
X4.0764Y-3.3661
T6
X3.5299Y-3.0394
X4.1299Y-3.0394
M30
